<svg xmlns="http://www.w3.org/2000/svg" width="90.775" height="52.262" viewBox="0 0 90.775 52.262"><g id="Grupo_8" data-name="Grupo 8" transform="translate(-146.182 -138.599)"><path id="Caminho_25" data-name="Caminho 25" d="M150.153,246.242l3.251,18.174h82.983l3.211-18.152c-.111-.02-.221-.038-.272-.045a323.035,323.035,0,0,0-89.173.022Z" transform="translate(-3.314 -87.24)" fill="#970d1a" fill-rule="evenodd"></path><path id="Caminho_26" data-name="Caminho 26" d="M186.735,290.946l-3.223-12.237h-.724v-.534H186.9v.534h-.86l2.013,7.989,2.093-7.989H189v-.534h2.532v.534h-.826l-3.242,12.237Zm7.161-3.678h1.718l-.832-3.242-.887,3.242Zm-2,3.443v-.428h.661l2.738-9.6h.6l2.52,9.6h.534v.428h-3.286v-.428h.719l-.646-2.55h-1.978l-.722,2.55h.909v.428Zm9.315,0v-.428h.728V281.11h-.728v-.427h3.6v.427h-.817v9.173h.7a1.96,1.96,0,0,0,1.622-.687,4.4,4.4,0,0,0,.716-2.25h.369v3.366Zm8.685,0v-.428h.728V281.11h-.728v-.427h6.068l.1,2.55H215.7a3.3,3.3,0,0,0-.834-1.677,2.544,2.544,0,0,0-1.663-.445h-.523v4.14a1.351,1.351,0,0,0,1.077-.41,2.278,2.278,0,0,0,.352-1.352h.354v4.163h-.354a2.907,2.907,0,0,0-.359-1.526,1.26,1.26,0,0,0-1.071-.432v4.59h.538a2.461,2.461,0,0,0,1.891-.647,3.89,3.89,0,0,0,.765-2.224h.382l-.135,3.3Zm8.931,0v-.428h.757V281.11h-.757v-.427h2.708l2.991,6.083V281.11h-.817v-.427h2.063v.427h-.788v9.738h-.594l-4.348-8.8v8.235h.816v.428Zm10.7,0v-.428h1.027v-9.188h-.121a1.36,1.36,0,0,0-1.179.643,5.779,5.779,0,0,0-.71,2.14h-.368l.089-3.2h6.659l.072,3.2h-.353a5.97,5.97,0,0,0-.719-2.154,1.36,1.36,0,0,0-1.172-.629h-.118v9.188h1.025v.428Zm10.924-.428h.713v.428h-3.487v-.428h.7V281.11h-.7v-.427h3.487v.427h-.713v9.173Zm3.451.428v-.428h.756V281.11h-.756v-.427h2.707l2.993,6.083V281.11h-.819v-.427h2.063v.427h-.788v9.738h-.593l-4.348-8.8v8.235h.817v.428Zm11.253-4.305H257.3l-1.038-4.051-1.107,4.051Zm-2.5,4.305v-.534h.826l3.421-12h.753l3.148,12h.666v.534h-4.107v-.534h.9l-.807-3.189h-2.474l-.9,3.189h1.135v.534Z" transform="translate(-30.548 -116.478)" fill="#fff"></path><path id="Caminho_27" data-name="Caminho 27" d="M273.98,390.847l-1.513-8.018,49.385-.051-1.477,8.087c-.706,3.859-2.484,4.169-5.771,3.468a44.419,44.419,0,0,0-7.267-1.776,55.537,55.537,0,0,0-20.086,0,44.489,44.489,0,0,0-7.212,1.759c-3.359.718-5.318.457-6.06-3.468Z" transform="translate(-105.386 -203.769)" fill="#b98449" fill-rule="evenodd"></path><path id="Caminho_28" data-name="Caminho 28" d="M297.162,397.71a1.974,1.974,0,0,0,.433.861.577.577,0,0,0,.581.211.312.312,0,0,0,.246-.27,2.091,2.091,0,0,0-.106-.74l-.334-1.245a1.273,1.273,0,0,0-.248-.545.349.349,0,0,0-.359-.081.55.55,0,0,0-.383.462,2.054,2.054,0,0,0,.068.959l.1.389Zm.249.925.563,2.1.429-.117.058.215-1.668.447-.057-.214.357-.1-1.24-4.627-.356.1-.058-.219.405-.108c.124-.034.252-.074.382-.121s.267-.1.407-.161l.154.574a1.133,1.133,0,0,1,.263-.517.971.971,0,0,1,.476-.278,1.039,1.039,0,0,1,.957.238,1.955,1.955,0,0,1,.652,1.064,2.024,2.024,0,0,1-.031,1.315,1.14,1.14,0,0,1-.785.718.816.816,0,0,1-.49-.007.92.92,0,0,1-.418-.3Zm6.265-1.08.356-.063.038.214-1.607.284-.038-.214.354-.063-.493-2.8-.354.062-.04-.222.414-.073c.144-.026.284-.057.42-.093s.274-.076.408-.123l.544,3.094Zm-1.357-5.039a.5.5,0,0,1,.382.081.467.467,0,0,1,.21.323.479.479,0,0,1-.087.375.523.523,0,0,1-.719.126.466.466,0,0,1-.21-.322.474.474,0,0,1,.086-.376.508.508,0,0,1,.338-.208Zm4.688,4.7-.023-.217,1.291-3.013a.151.151,0,0,1-.049,0,2.074,2.074,0,0,0-.208.01.923.923,0,0,0-.645.289,1.492,1.492,0,0,0-.264.792l-.191.02-.1-1.171,2.373-.249.021.209-1.288,3.012.305-.031a.941.941,0,0,0,.667-.311,1.654,1.654,0,0,0,.27-.857l.175-.017.107,1.277-2.444.256Zm5.4-.423-.008-.218,1.5-2.915a.282.282,0,0,1-.047,0c-.1-.006-.165-.007-.21-.006a.923.923,0,0,0-.662.245,1.475,1.475,0,0,0-.319.772l-.193.007-.013-1.175,2.382-.083.008.211-1.5,2.916.308-.012a.936.936,0,0,0,.687-.263,1.671,1.671,0,0,0,.329-.835l.174-.006.019,1.281-2.455.085Zm7.257-1.722a.888.888,0,0,0-.626.176.759.759,0,0,0-.224.574.839.839,0,0,0,.081.447.315.315,0,0,0,.274.161.374.374,0,0,0,.342-.163.906.906,0,0,0,.133-.505l.02-.689Zm.857,1.127a.415.415,0,0,0,.023.194.112.112,0,0,0,.1.064.156.156,0,0,0,.074-.022,1.33,1.33,0,0,0,.117-.066l.107.1a1.217,1.217,0,0,1-.356.3.726.726,0,0,1-.376.09.52.52,0,0,1-.349-.137.7.7,0,0,1-.2-.371,1.436,1.436,0,0,1-.463.352,1.167,1.167,0,0,1-.53.1.766.766,0,0,1-.777-.834.9.9,0,0,1,.477-.769,2.693,2.693,0,0,1,1.3-.317l.026-.755a.631.631,0,0,0-.085-.4.4.4,0,0,0-.318-.131.9.9,0,0,0-.3.036c-.088.029-.135.056-.136.086a.842.842,0,0,0,.111.17.466.466,0,0,1,.111.3.4.4,0,0,1-.136.287.419.419,0,0,1-.307.109.44.44,0,0,1-.312-.132.413.413,0,0,1-.115-.311.65.65,0,0,1,.361-.554,1.727,1.727,0,0,1,.92-.182,1.239,1.239,0,0,1,.856.273,1.091,1.091,0,0,1,.228.831l-.057,1.688Zm3.2.887.023-.216.324.035.3-2.831-.326-.034.024-.226.384.041c.148.016.289.025.428.027s.271,0,.4-.008l-.059.558a1.041,1.041,0,0,1,.377-.388.754.754,0,0,1,.467-.1.531.531,0,0,1,.381.2.547.547,0,0,1,.12.415.488.488,0,0,1-.155.328.411.411,0,0,1-.329.1.429.429,0,0,1-.289-.142.354.354,0,0,1-.092-.286.558.558,0,0,1,.066-.2.7.7,0,0,0,.06-.138c0-.011,0-.021-.017-.03a.068.068,0,0,0-.047-.018q-.211-.025-.389.356a3.406,3.406,0,0,0-.245,1.041l-.15,1.433.444.046-.023.217-1.677-.176Zm6.6.635.354.062-.037.215-1.608-.283.038-.215.355.063.492-2.8-.352-.063.038-.224.413.074c.145.025.287.044.426.057s.284.022.426.022l-.546,3.094Zm.446-5.2a.492.492,0,0,1,.333.207.491.491,0,0,1-.124.7.524.524,0,0,1-.719-.129.486.486,0,0,1-.088-.374.476.476,0,0,1,.211-.323.5.5,0,0,1,.387-.08Zm4.836,4.922a.889.889,0,0,0-.651.019.766.766,0,0,0-.356.5.821.821,0,0,0-.028.453.309.309,0,0,0,.227.223.373.373,0,0,0,.368-.076.928.928,0,0,0,.253-.457l.186-.665Zm.56,1.3a.379.379,0,0,0-.024.193.107.107,0,0,0,.08.085.143.143,0,0,0,.079,0,1.071,1.071,0,0,0,.128-.036l.081.12a1.234,1.234,0,0,1-.419.211.74.74,0,0,1-.388-.005.511.511,0,0,1-.3-.217.7.7,0,0,1-.1-.407,1.447,1.447,0,0,1-.534.229,1.187,1.187,0,0,1-.54-.028.768.768,0,0,1-.551-1,.9.9,0,0,1,.649-.63,2.7,2.7,0,0,1,1.334,0l.209-.726a.632.632,0,0,0,.013-.409.4.4,0,0,0-.278-.2.873.873,0,0,0-.3-.036c-.092.006-.142.022-.15.05a.656.656,0,0,0,.068.193.461.461,0,0,1,.032.311.39.39,0,0,1-.2.247.425.425,0,0,1-.324.032.447.447,0,0,1-.271-.2.412.412,0,0,1-.037-.331.644.644,0,0,1,.485-.449,1.707,1.707,0,0,1,.936.046,1.25,1.25,0,0,1,.766.471,1.1,1.1,0,0,1,.02.863l-.463,1.624Z" transform="translate(-124.555 -211.888)" fill="#fff"></path><path id="Caminho_29" data-name="Caminho 29" d="M346.132,171.92l14.7-21.776h-29.42l14.72,21.776Z" transform="translate(-154.576 -9.635)" fill="#fff" fill-rule="evenodd"></path><path id="Caminho_30" data-name="Caminho 30" d="M236.957,155.222a295.171,295.171,0,0,0-36.377-3.171L209.9,138.6H173.107l9.318,13.447a292.183,292.183,0,0,0-36.244,3.155l.345,1.949a305.585,305.585,0,0,1,39.445-3.029l-5.237-7.79.011,0-3.9-5.81a.823.823,0,0,1,.232.035,8.437,8.437,0,0,1,4.2,3.644l1.085,1.606.016,0,5.754,8.517,0,.007,3.431,5.072,1.035-1.52-2.551-3.793h0l-9.125-13.573a8.506,8.506,0,0,1,4.3,3.689l2.205,3.265h0l3.016,4.462h0l1.455,2.154h0l1.277,1.889,0,0,.332.5,1.564-2.362h0l2.571-3.891h.005l3.448-5.2a16.426,16.426,0,0,1,2.632-3.334,6.651,6.651,0,0,1,1.741-1.032,2.856,2.856,0,0,1,.775-.131l-9.137,13.618a310.7,310.7,0,0,1,39.5,3.044l.345-1.949Zm-37.742-10.353a6.17,6.17,0,0,0,1.217-2.685c.02-.929-.5-1.672-1.951-1.674h-1.735l1.653,2.46a9.228,9.228,0,0,1-.94,1.755l-.356-.527a8.5,8.5,0,0,0-4.3-3.688h-.018l3.763,5.6-1.044,1.586-2.362-3.5a8.51,8.51,0,0,0-4.3-3.688h-.019l5.764,8.574-1.038,1.578-4.37-6.464a8.5,8.5,0,0,0-4.3-3.688h-.02l8.706,12.92,5.648-8.561Z" fill="#b98449" fill-rule="evenodd"></path></g></svg>